<svg width="680" height="67" viewBox="0 0 680 67" fill="none" xmlns="http://www.w3.org/2000/svg">
<rect width="328" height="67" rx="24" fill="#0A3871"/>
<path d="M131.339 39V27.3636H138.362V28.6136H132.748V32.5455H137.998V33.7955H132.748V37.75H138.452V39H131.339ZM142.06 33.75V39H140.719V30.2727H142.015V31.6364H142.129C142.333 31.1932 142.644 30.8371 143.06 30.5682C143.477 30.2955 144.015 30.1591 144.674 30.1591C145.265 30.1591 145.782 30.2803 146.225 30.5227C146.668 30.7614 147.013 31.125 147.259 31.6136C147.505 32.0985 147.629 32.7121 147.629 33.4545V39H146.288V33.5455C146.288 32.8598 146.11 32.3258 145.754 31.9432C145.397 31.5568 144.909 31.3636 144.288 31.3636C143.86 31.3636 143.477 31.4564 143.14 31.642C142.807 31.8277 142.543 32.0985 142.35 32.4545C142.157 32.8106 142.06 33.2424 142.06 33.75ZM153.624 39.1818C152.806 39.1818 152.102 38.9886 151.511 38.6023C150.92 38.2159 150.465 37.6837 150.147 37.0057C149.829 36.3277 149.67 35.553 149.67 34.6818C149.67 33.7955 149.833 33.0133 150.158 32.3352C150.488 31.6534 150.946 31.1212 151.533 30.7386C152.124 30.3523 152.814 30.1591 153.602 30.1591C154.215 30.1591 154.768 30.2727 155.261 30.5C155.753 30.7273 156.156 31.0455 156.471 31.4545C156.785 31.8636 156.98 32.3409 157.056 32.8864H155.715C155.613 32.4886 155.386 32.1364 155.033 31.8295C154.685 31.5189 154.215 31.3636 153.624 31.3636C153.102 31.3636 152.643 31.5 152.249 31.7727C151.859 32.0417 151.554 32.4223 151.335 32.9148C151.119 33.4034 151.011 33.9773 151.011 34.6364C151.011 35.3106 151.117 35.8977 151.329 36.3977C151.545 36.8977 151.848 37.286 152.238 37.5625C152.632 37.839 153.094 37.9773 153.624 37.9773C153.973 37.9773 154.289 37.9167 154.573 37.7955C154.857 37.6742 155.098 37.5 155.295 37.2727C155.492 37.0455 155.632 36.7727 155.715 36.4545H157.056C156.98 36.9697 156.793 37.4337 156.494 37.8466C156.198 38.2557 155.806 38.5814 155.317 38.8239C154.833 39.0625 154.268 39.1818 153.624 39.1818ZM159.016 39V30.2727H160.312V31.5909H160.403C160.562 31.1591 160.85 30.8087 161.266 30.5398C161.683 30.2708 162.153 30.1364 162.675 30.1364C162.774 30.1364 162.897 30.1383 163.045 30.142C163.192 30.1458 163.304 30.1515 163.38 30.1591V31.5227C163.335 31.5114 163.23 31.4943 163.067 31.4716C162.908 31.4451 162.74 31.4318 162.562 31.4318C162.138 31.4318 161.759 31.5208 161.425 31.6989C161.096 31.8731 160.835 32.1155 160.641 32.4261C160.452 32.733 160.357 33.0833 160.357 33.4773V39H159.016ZM164.969 39V30.2727H166.31V39H164.969ZM165.651 28.8182C165.39 28.8182 165.165 28.7292 164.975 28.5511C164.79 28.3731 164.697 28.1591 164.697 27.9091C164.697 27.6591 164.79 27.4451 164.975 27.267C165.165 27.089 165.39 27 165.651 27C165.913 27 166.136 27.089 166.322 27.267C166.511 27.4451 166.606 27.6591 166.606 27.9091C166.606 28.1591 166.511 28.3731 166.322 28.5511C166.136 28.7292 165.913 28.8182 165.651 28.8182ZM168.766 42.2727V30.2727H170.062V31.6591H170.221C170.319 31.5076 170.456 31.3144 170.63 31.0795C170.808 30.8409 171.062 30.6288 171.391 30.4432C171.725 30.2538 172.175 30.1591 172.744 30.1591C173.478 30.1591 174.126 30.3428 174.687 30.7102C175.247 31.0777 175.685 31.5985 175.999 32.2727C176.314 32.947 176.471 33.7424 176.471 34.6591C176.471 35.5833 176.314 36.3845 175.999 37.0625C175.685 37.7367 175.249 38.2595 174.692 38.6307C174.136 38.9981 173.494 39.1818 172.766 39.1818C172.206 39.1818 171.757 39.089 171.42 38.9034C171.083 38.714 170.823 38.5 170.641 38.2614C170.46 38.0189 170.319 37.8182 170.221 37.6591H170.107V42.2727H168.766ZM170.085 34.6364C170.085 35.2955 170.181 35.8769 170.374 36.3807C170.567 36.8807 170.85 37.2727 171.221 37.5568C171.592 37.8371 172.047 37.9773 172.585 37.9773C173.145 37.9773 173.613 37.8295 173.988 37.5341C174.367 37.2348 174.651 36.8333 174.84 36.3295C175.033 35.822 175.13 35.2576 175.13 34.6364C175.13 34.0227 175.035 33.4697 174.846 32.9773C174.66 32.4811 174.378 32.089 173.999 31.8011C173.624 31.5095 173.153 31.3636 172.585 31.3636C172.039 31.3636 171.581 31.5019 171.21 31.7784C170.838 32.0511 170.558 32.4337 170.369 32.9261C170.179 33.4148 170.085 33.9848 170.085 34.6364ZM182.312 30.2727V31.4091H177.789V30.2727H182.312ZM179.107 28.1818H180.448V36.5C180.448 36.8788 180.503 37.1629 180.613 37.3523C180.727 37.5379 180.871 37.6629 181.045 37.7273C181.223 37.7879 181.41 37.8182 181.607 37.8182C181.755 37.8182 181.876 37.8106 181.971 37.7955C182.066 37.7765 182.141 37.7614 182.198 37.75L182.471 38.9545C182.38 38.9886 182.253 39.0227 182.09 39.0568C181.927 39.0947 181.721 39.1136 181.471 39.1136C181.092 39.1136 180.721 39.0322 180.357 38.8693C179.997 38.7064 179.698 38.4583 179.46 38.125C179.225 37.7917 179.107 37.3712 179.107 36.8636V28.1818ZM186.897 39.2045C186.344 39.2045 185.842 39.1004 185.391 38.892C184.941 38.6799 184.583 38.375 184.317 37.9773C184.052 37.5758 183.92 37.0909 183.92 36.5227C183.92 36.0227 184.018 35.6174 184.215 35.3068C184.412 34.9924 184.675 34.7462 185.005 34.5682C185.335 34.3902 185.698 34.2576 186.096 34.1705C186.497 34.0795 186.901 34.0076 187.306 33.9545C187.836 33.8864 188.266 33.8352 188.596 33.8011C188.929 33.7633 189.172 33.7008 189.323 33.6136C189.478 33.5265 189.556 33.375 189.556 33.1591V33.1136C189.556 32.553 189.403 32.1174 189.096 31.8068C188.793 31.4962 188.333 31.3409 187.715 31.3409C187.075 31.3409 186.573 31.4811 186.21 31.7614C185.846 32.0417 185.59 32.3409 185.442 32.6591L184.17 32.2045C184.397 31.6742 184.7 31.2614 185.079 30.9659C185.461 30.6667 185.878 30.4583 186.329 30.3409C186.783 30.2197 187.23 30.1591 187.67 30.1591C187.95 30.1591 188.272 30.1932 188.636 30.2614C189.003 30.3258 189.357 30.4602 189.698 30.6648C190.043 30.8693 190.329 31.178 190.556 31.5909C190.783 32.0038 190.897 32.5568 190.897 33.25V39H189.556V37.8182H189.488C189.397 38.0076 189.246 38.2102 189.033 38.4261C188.821 38.642 188.539 38.8258 188.187 38.9773C187.835 39.1288 187.405 39.2045 186.897 39.2045ZM187.102 38C187.632 38 188.079 37.8958 188.442 37.6875C188.81 37.4792 189.086 37.2102 189.272 36.8807C189.461 36.5511 189.556 36.2045 189.556 35.8409V34.6136C189.499 34.6818 189.374 34.7443 189.181 34.8011C188.992 34.8542 188.772 34.9015 188.522 34.9432C188.276 34.9811 188.035 35.0152 187.8 35.0455C187.569 35.072 187.382 35.0947 187.238 35.1136C186.889 35.1591 186.564 35.233 186.261 35.3352C185.961 35.4337 185.719 35.5833 185.533 35.7841C185.352 35.9811 185.261 36.25 185.261 36.5909C185.261 37.0568 185.433 37.4091 185.778 37.6477C186.126 37.8826 186.567 38 187.102 38ZM193.344 39V30.2727H194.64V31.5909H194.731C194.89 31.1591 195.178 30.8087 195.594 30.5398C196.011 30.2708 196.481 30.1364 197.004 30.1364C197.102 30.1364 197.225 30.1383 197.373 30.142C197.521 30.1458 197.632 30.1515 197.708 30.1591V31.5227C197.663 31.5114 197.558 31.4943 197.396 31.4716C197.237 31.4451 197.068 31.4318 196.89 31.4318C196.466 31.4318 196.087 31.5208 195.754 31.6989C195.424 31.8731 195.163 32.1155 194.969 32.4261C194.78 32.733 194.685 33.0833 194.685 33.4773V39H193.344Z" fill="white"/>
<rect x="352.5" y="0.5" width="327" height="66" rx="23.5" fill="#D8DFE8"/>
<path d="M472.469 39C476.014 39 478.014 36.7955 478.014 33.1591C478.014 29.5455 476.014 27.3636 472.628 27.3636H468.878V39H472.469ZM470.287 37.75V28.6136H472.537C475.264 28.6136 476.651 30.3409 476.651 33.1591C476.651 36 475.264 37.75 472.378 37.75H470.287ZM483.855 39.1818C485.628 39.1818 486.923 38.2955 487.332 36.9773L486.037 36.6136C485.696 37.5227 484.906 37.9773 483.855 37.9773C482.281 37.9773 481.196 36.9602 481.134 35.0909H487.469V34.5227C487.469 31.2727 485.537 30.1591 483.719 30.1591C481.355 30.1591 479.787 32.0227 479.787 34.7045C479.787 37.3864 481.332 39.1818 483.855 39.1818ZM481.134 33.9318C481.224 32.5739 482.185 31.3636 483.719 31.3636C485.173 31.3636 486.105 32.4545 486.105 33.9318H481.134ZM495.69 32.2273C495.27 30.9886 494.327 30.1591 492.599 30.1591C490.759 30.1591 489.395 31.2045 489.395 32.6818C489.395 33.8864 490.111 34.6932 491.713 35.0682L493.168 35.4091C494.048 35.6136 494.463 36.0341 494.463 36.6364C494.463 37.3864 493.668 38 492.418 38C491.321 38 490.634 37.5284 490.395 36.5909L489.122 36.9091C489.435 38.392 490.656 39.1818 492.44 39.1818C494.469 39.1818 495.849 38.0739 495.849 36.5682C495.849 35.3523 495.088 34.5852 493.531 34.2045L492.236 33.8864C491.202 33.6307 490.736 33.2841 490.736 32.6136C490.736 31.8636 491.531 31.3182 492.599 31.3182C493.77 31.3182 494.253 31.9659 494.486 32.5682L495.69 32.2273ZM501.527 39.1818C503.3 39.1818 504.595 38.2955 505.004 36.9773L503.709 36.6136C503.368 37.5227 502.578 37.9773 501.527 37.9773C499.953 37.9773 498.868 36.9602 498.805 35.0909H505.141V34.5227C505.141 31.2727 503.209 30.1591 501.391 30.1591C499.027 30.1591 497.459 32.0227 497.459 34.7045C497.459 37.3864 499.004 39.1818 501.527 39.1818ZM498.805 33.9318C498.896 32.5739 499.857 31.3636 501.391 31.3636C502.845 31.3636 503.777 32.4545 503.777 33.9318H498.805ZM508.521 33.75C508.521 32.2273 509.464 31.3636 510.749 31.3636C511.993 31.3636 512.749 32.1761 512.749 33.5455V39H514.089V33.4545C514.089 31.2273 512.902 30.1591 511.135 30.1591C509.817 30.1591 508.999 30.75 508.589 31.6364H508.476V30.2727H507.18V39H508.521V33.75ZM520.085 39.1818C522.017 39.1818 523.29 38 523.517 36.4545H522.176C521.926 37.4091 521.131 37.9773 520.085 37.9773C518.494 37.9773 517.472 36.6591 517.472 34.6364C517.472 32.6591 518.517 31.3636 520.085 31.3636C521.267 31.3636 521.972 32.0909 522.176 32.8864H523.517C523.29 31.25 521.903 30.1591 520.062 30.1591C517.699 30.1591 516.131 32.0227 516.131 34.6818C516.131 37.2955 517.631 39.1818 520.085 39.1818ZM525.477 39H526.818V33.4773C526.818 32.2955 527.75 31.4318 529.023 31.4318C529.381 31.4318 529.75 31.5 529.841 31.5227V30.1591C529.688 30.1477 529.335 30.1364 529.136 30.1364C528.091 30.1364 527.182 30.7273 526.864 31.5909H526.773V30.2727H525.477V39ZM531.43 39H532.771V30.2727H531.43V39ZM532.112 28.8182C532.635 28.8182 533.067 28.4091 533.067 27.9091C533.067 27.4091 532.635 27 532.112 27C531.589 27 531.158 27.4091 531.158 27.9091C531.158 28.4091 531.589 28.8182 532.112 28.8182ZM535.227 42.2727H536.568V37.6591H536.682C536.977 38.1364 537.545 39.1818 539.227 39.1818C541.409 39.1818 542.932 37.4318 542.932 34.6591C542.932 31.9091 541.409 30.1591 539.205 30.1591C537.5 30.1591 536.977 31.2045 536.682 31.6591H536.523V30.2727H535.227V42.2727ZM536.545 34.6364C536.545 32.6818 537.409 31.3636 539.045 31.3636C540.75 31.3636 541.591 32.7955 541.591 34.6364C541.591 36.5 540.727 37.9773 539.045 37.9773C537.432 37.9773 536.545 36.6136 536.545 34.6364ZM548.773 30.2727H546.909V28.1818H545.568V30.2727H544.25V31.4091H545.568V36.8636C545.568 38.3864 546.795 39.1136 547.932 39.1136C548.432 39.1136 548.75 39.0227 548.932 38.9545L548.659 37.75C548.545 37.7727 548.364 37.8182 548.068 37.8182C547.477 37.8182 546.909 37.6364 546.909 36.5V31.4091H548.773V30.2727ZM553.358 39.2045C554.881 39.2045 555.676 38.3864 555.949 37.8182H556.017V39H557.358V33.25C557.358 30.4773 555.244 30.1591 554.131 30.1591C552.812 30.1591 551.312 30.6136 550.631 32.2045L551.903 32.6591C552.199 32.0227 552.898 31.3409 554.176 31.3409C555.409 31.3409 556.017 31.9943 556.017 33.1136V33.1591C556.017 33.8068 555.358 33.75 553.767 33.9545C552.148 34.1648 550.381 34.5227 550.381 36.5227C550.381 38.2273 551.699 39.2045 553.358 39.2045ZM553.562 38C552.494 38 551.722 37.5227 551.722 36.5909C551.722 35.5682 552.653 35.25 553.699 35.1136C554.267 35.0455 555.79 34.8864 556.017 34.6136V35.8409C556.017 36.9318 555.153 38 553.562 38ZM559.805 39H561.146V33.4773C561.146 32.2955 562.078 31.4318 563.351 31.4318C563.709 31.4318 564.078 31.5 564.169 31.5227V30.1591C564.016 30.1477 563.663 30.1364 563.464 30.1364C562.419 30.1364 561.51 30.7273 561.192 31.5909H561.101V30.2727H559.805V39Z" fill="#0A3871"/>
<rect x="352.5" y="0.5" width="327" height="66" rx="23.5" stroke="#0A3871"/>
</svg>
